<?xml version="1.0" encoding="UTF-8"?>
<svg width="24px" height="24px" viewBox="0 0 24 24" version="1.1" xmlns="http://www.w3.org/2000/svg" xmlns:xlink="http://www.w3.org/1999/xlink">
    <!-- Generator: Sketch 50.2 (55047) - http://www.bohemiancoding.com/sketch -->
    <title>path1</title>
    <desc>Created with Sketch.</desc>
    <defs></defs>
    <g id="Page-1" stroke="none" stroke-width="1" fill="none" fill-rule="evenodd">
        <g id="Stock-Copy-27" transform="translate(-63.000000, -179.000000)" fill="#666666" fill-rule="nonzero">
            <path d="M75.8534918,189.176751 L75.8714918,189.311744 L75.8714918,190.055706 C75.8714918,190.461435 75.8654925,190.840916 75.8534918,191.194147 C75.8429918,191.54663 75.8309925,191.888612 75.8182425,192.219345 L75.8182425,194.24874 C75.8182425,194.594472 75.8369925,194.913957 75.8714918,195.20644 C75.9067425,195.498926 75.9629918,195.672166 76.040241,195.725414 C76.115991,195.777911 76.232991,195.804159 76.391991,195.804159 L76.6649895,195.804159 L76.7527388,196.074146 C76.7182387,196.134892 76.6484887,196.187391 76.5419895,196.231638 C76.4362395,196.277385 76.3537403,196.284135 76.295241,196.254887 L73.7025015,196.254887 L73.4385022,196.254887 C73.332003,196.254887 73.2382537,196.224888 73.1557538,196.164142 L73.1557538,195.939153 C73.2262537,195.849158 73.338003,195.804159 73.4910023,195.804159 L73.8082507,195.804159 C73.962,195.713415 74.05275,195.62192 74.08125,195.531174 C74.1104993,195.440429 74.1255,195.280687 74.1255,195.053449 C74.1494993,194.84121 74.16075,194.613222 74.16075,194.370984 C74.16075,194.128746 74.1667492,193.931507 74.1787492,193.780014 L74.1787492,193.210794 L74.1787492,192.028105 C74.1787492,191.497131 74.1637492,191.15965 74.1345,191.016406 C74.106,190.872414 74.06625,190.694673 74.019,190.483184 C73.91475,190.528932 73.7872507,190.581429 73.6402515,190.641426 C73.4932522,190.701423 73.397253,190.731421 73.350003,190.731421 L73.262253,190.596429 C73.262253,190.461435 73.338003,190.340691 73.4910023,190.234947 L73.8082507,190.009958 C73.91475,189.949962 74.019,189.893715 74.1255,189.841217 C74.2319993,189.788719 74.3609985,189.732472 74.5139978,189.671726 C74.702247,189.551731 74.9039963,189.450487 75.1222455,189.367242 C75.338994,189.284746 75.5834925,189.220999 75.8534918,189.176751 Z M75.0600698,184.397003 C75.2483085,184.397003 75.4192972,184.464503 75.5707868,184.599503 C75.724527,184.734504 75.8565173,184.900254 75.9682605,185.095253 C76.080753,185.291004 76.1355,185.471004 76.1355,185.636004 C76.1355,186.012505 76.027506,186.305005 75.8092703,186.515005 C75.5925353,186.726505 75.4327958,186.845755 75.3330533,186.876505 C75.2340585,186.906505 75.119316,186.921505 74.990325,186.921505 C74.8598333,186.921505 74.7338423,186.887755 74.6108497,186.820255 C74.4863588,186.752005 74.3663655,186.628255 74.2501238,186.447505 C74.1316312,186.267505 74.0558865,186.080005 74.0191388,185.884254 C73.996641,185.628504 74.0558865,185.358504 74.1968775,185.072754 C74.3378678,184.787754 74.5073572,184.592003 74.7075938,184.486253 C74.849334,184.427003 74.9655773,184.397003 75.0600698,184.397003 Z M75,180.553993 C69.2400055,180.553993 64.5532837,185.240005 64.5532837,191 C64.5532837,196.76075 69.2400055,201.44674 75,201.44674 C80.7600405,201.44674 85.446762,196.76075 85.446762,191 C85.446762,185.240005 80.7600405,180.553993 75,180.553993 Z M75,179 C81.6172485,179 87,184.383507 87,191 C87,197.617248 81.6172485,203 75,203 C68.3827515,203 63,197.617248 63,191 C63,184.383507 68.3827515,179 75,179 Z" id="path1"></path>
        </g>
    </g>
</svg>