<?xml version="1.0" encoding="UTF-8"?>
<svg width="22px" height="24px" viewBox="0 0 22 24" version="1.1" xmlns="http://www.w3.org/2000/svg" xmlns:xlink="http://www.w3.org/1999/xlink">
    <!-- Generator: Sketch 50.2 (55047) - http://www.bohemiancoding.com/sketch -->
    <title>Stroke 5 Copy</title>
    <desc>Created with Sketch.</desc>
    <defs></defs>
    <g id="Page-1" stroke="none" stroke-width="1" fill="none" fill-rule="evenodd">
        <g id="Stock-Copy-27" transform="translate(-64.000000, -95.000000)" fill="#79A1EC" fill-rule="nonzero">
            <path d="M79.1401486,99.051557 L76.9353177,96.8473347 L85.3830722,95 L82.3899986,102.30051 L80.2062366,100.117351 L75.1762404,104.978294 L69.0261283,104.106091 L65.4700718,111.030666 L64.1292923,110.34212 L68.175482,102.463127 L74.6585358,103.382547 L79.1401486,99.051557 Z M64,119 L64,114.483289 L67.0111404,114.483289 L67.0111404,119 L64,119 Z M70.0222809,119 L70.0222809,109.966579 L73.0334213,109.966579 L73.0334213,119 L70.0222809,119 Z M76.0445618,119 L76.0445618,106.955438 L79.0557022,106.955438 L79.0557022,119 L76.0445618,119 Z M82.0668426,119 L82.0668426,103.944298 L85.0779831,103.944298 L85.0779831,119 L82.0668426,119 Z" id="Stroke-5-Copy"></path>
        </g>
    </g>
</svg>