<?xml version="1.0" encoding="UTF-8" standalone="no"?>
<!DOCTYPE svg PUBLIC "-//W3C//DTD SVG 1.1//EN" "http://www.w3.org/Graphics/SVG/1.1/DTD/svg11.dtd">
<svg width="100%" height="100%" viewBox="0 0 109 109" version="1.1" xmlns="http://www.w3.org/2000/svg" xmlns:xlink="http://www.w3.org/1999/xlink" xml:space="preserve" xmlns:serif="http://www.serif.com/" style="fill-rule:evenodd;clip-rule:evenodd;stroke-linejoin:round;stroke-miterlimit:1.41421;">
    <g transform="matrix(1,0,0,1,-337.5,-112.5)">
        <g id="Page-8" serif:id="Page 8" transform="matrix(6.77083,0,0,6.77083,337.5,112.5)">
            <rect x="0" y="0" width="16" height="16" style="fill:none;"/>
            <clipPath id="_clip1">
                <rect x="0" y="0" width="16" height="16"/>
            </clipPath>
            <g clip-path="url(#_clip1)">
                <g transform="matrix(0.147692,0,0,0.147692,-49.8462,-16.6154)">
                    <g id="Layer-1" serif:id="Layer 1">
                        <path d="M391.667,220.833C361.796,220.833 337.5,196.538 337.5,166.667C337.5,136.796 361.796,112.5 391.667,112.5C421.538,112.5 445.833,136.796 445.833,166.667C445.833,196.538 421.538,220.833 391.667,220.833ZM402.895,192.625L402.895,188.501C398.605,188.501 396.511,187.425 396.612,185.258L396.612,155.864L380.506,155.864L380.506,159.98C384.652,159.98 386.717,161.085 386.717,163.303L386.717,185.258C386.717,187.425 384.652,188.501 380.506,188.501L380.506,192.625L402.895,192.625ZM397.478,143.73C397.478,145.413 396.886,146.872 395.709,148.093C394.532,149.32 393.073,149.934 391.34,149.934C390.473,149.934 389.664,149.768 388.92,149.429C388.176,149.096 387.519,148.656 386.97,148.093C386.421,147.544 385.966,146.886 385.634,146.15C385.295,145.399 385.128,144.59 385.128,143.73C385.128,141.997 385.742,140.538 386.97,139.361C388.198,138.176 389.657,137.584 391.34,137.584C393.022,137.584 394.467,138.191 395.673,139.39C396.879,140.596 397.478,142.048 397.478,143.73Z" style="fill:white;"/>
                    </g>
                </g>
            </g>
        </g>
    </g>
</svg>
